<?xml version="1.0" encoding="UTF-8" standalone="no"?>
<svg
   viewBox="0 0 240 240"
   version="1.1"
   id="svg92"
   sodipodi:docname="ms-vba.svg"
   width="240"
   height="240"
   inkscape:version="1.1.1 (3bf5ae0d25, 2021-09-20)"
   xmlns:inkscape="http://www.inkscape.org/namespaces/inkscape"
   xmlns:sodipodi="http://sodipodi.sourceforge.net/DTD/sodipodi-0.dtd"
   xmlns="http://www.w3.org/2000/svg"
   xmlns:svg="http://www.w3.org/2000/svg">
  <defs
     id="defs96" />
  <sodipodi:namedview
     id="namedview94"
     pagecolor="#505050"
     bordercolor="#ffffff"
     borderopacity="1"
     inkscape:pageshadow="0"
     inkscape:pageopacity="0"
     inkscape:pagecheckerboard="1"
     showgrid="false"
     inkscape:zoom="2.0447171"
     inkscape:cx="113.2186"
     inkscape:cy="125.93429"
     inkscape:window-width="1600"
     inkscape:window-height="811"
     inkscape:window-x="-9"
     inkscape:window-y="-9"
     inkscape:window-maximized="1"
     inkscape:current-layer="svg92" />
  <g
     id="g1274"
     transform="matrix(0.20253297,0,0,0.20253297,-74.770201,12.819289)"
     style="stroke-width:1.08099">
    <path
       d="m 1161.01,899.54 c -0.8,3.34 -1.71,6.27 -3.02,9.49 q -7.04,17.36 -12.77,35.17 c -1.88,5.84 -2.4,16.85 1.72,21.88 q 3.57,4.38 8.06,7.74 c 4.46,3.33 17.59,5.14 15.91,12.15 a 2.17,2.17 0 0 1 -2.1,1.66 l -82.12,0.29 q -0.74,0 -0.73,-0.74 l 0.12,-6.57 q 0.02,-0.63 0.64,-0.74 c 27.07,-4.99 38.96,-33.8 48.15,-58.17 q 38.16,-101.26 76.48,-202.47 c 0.73,-1.92 1.46,-2.08 3.4,-2.01 q 15.75,0.62 31.98,-0.01 a 1,0.98 77.9 0 1 0.96,0.64 q 39.73,104.1 79.44,208.08 c 5.23,13.69 10.39,24.4 17.58,35.86 7.33,11.68 18.16,16.22 31.55,18.96 2.05,0.42 1.05,4.6 0.5,6.01 q -0.19,0.48 -0.7,0.59 -1.95,0.4 -2.56,0.4 -61.3,0 -124.7,0.02 a 0.8,0.8 0 0 1 -0.8,-0.8 v -5.52 q 0,-0.55 0.49,-0.82 c 1.22,-0.65 2.93,-0.67 3.95,-0.96 8.35,-2.43 23.43,-5.51 25.64,-15.42 1.79,-8.08 -0.89,-14.57 -4.33,-23.75 q -7.82,-20.87 -15.7,-41.69 a 0.86,0.85 79.7 0 0 -0.78,-0.55 q -43.27,-0.05 -86.46,0.03 -3.89,0.01 -9.08,0.61 -0.58,0.07 -0.72,0.64 z M 1245,880.8 c 1.52,0.01 3.78,0.36 5.66,0.37 q 0.65,0 0.42,-0.61 -18.42,-48.25 -36.16,-96.74 c -1.37,-3.76 -3.09,-7.1 -4.89,-10.59 q -0.96,-1.87 -1.56,0.15 -0.69,2.38 -1.91,5.8 -17.83,50.05 -36.08,100.6 a 0.83,0.82 -80.2 0 0 0.78,1.11 q 36.66,-0.28 73.74,-0.09 z m -562.07,20.52 q 1.96,-3.31 3.36,-7.01 21.9,-57.77 43.61,-115.6 c 7.94,-21.14 8.93,-39.73 -16.57,-46.74 -1.8,-0.49 -4.06,-0.66 -6.15,-1.11 q -0.59,-0.12 -0.64,-0.74 l -0.38,-5.92 q -0.05,-0.7 0.65,-0.7 h 84.42 a 1.41,1.4 83.9 0 1 1.37,1.11 c 0.64,2.91 -0.19,4.87 -3.06,6.09 q -8.18,3.44 -14.72,6.87 c -15.58,8.18 -25.16,35.68 -32.17,53.86 -25.66,66.58 -51.73,133.08 -76.39,200.03 q -0.19,0.51 -0.69,0.71 -3.13,1.23 -6.51,0.67 a 1.54,1.53 83.8 0 1 -1.18,-0.96 Q 616.01,886.12 573.78,780.59 c -8.42,-21.05 -18.39,-47.67 -45.18,-49.34 a 1.29,1.29 0 0 1 -1.21,-1.21 L 527,723.97 q -0.04,-0.56 0.52,-0.66 c 1.59,-0.28 3.47,0.17 4.66,0.17 q 57.63,0.07 115.26,-0.02 0.64,0 0.62,0.63 l -0.2,6.28 q -0.02,0.61 -0.63,0.65 c -13.67,0.84 -26.28,10.7 -21.62,25.92 q 1.76,5.75 5.06,14.13 25.65,65.12 51.6,130.2 a 0.37,0.37 0 0 0 0.66,0.05 z M 988.48,848.9 c 3.5,1.12 7.7,1.32 11.27,2.43 18.7,5.83 38.09,12.88 49.99,29.5 9.12,12.74 11.57,25.57 11.19,41.24 -0.77,32.11 -27.63,56.09 -57.43,61.99 -11.18,2.21 -21.56,3.57 -33.49,3.71 -46.46,0.53 -92.94,-0.67 -139.39,0.14 q -6.55,0.12 -13.89,-0.29 a 0.81,0.8 -85 0 1 -0.75,-0.9 l 0.67,-5.64 q 0.2,-1.69 1.87,-1.95 c 20.55,-3.25 29.81,-10.93 29.77,-32.61 q -0.19,-90.01 0.16,-180.02 c 0.04,-8.88 -0.27,-20.01 -7.54,-26.38 -6.89,-6.02 -14.27,-7.45 -22.91,-8.75 q -0.54,-0.09 -0.87,-0.53 -1.18,-1.6 -1.11,-3.64 0.02,-0.51 -0.16,-0.99 -0.6,-1.54 0.56,-2.36 0.4,-0.27 0.88,-0.28 72.48,-0.14 144.95,-0.11 c 12.09,0.01 24.15,2.74 35.79,5.8 23.15,6.09 45.06,23.32 46.85,48.3 1.19,16.57 -1.48,32.56 -13.55,44.92 -12.81,13.12 -26.63,17.54 -42.95,24.46 q -2.59,1.1 0.09,1.96 z M 906.21,737.98 v 105.36 a 1.45,1.45 0 0 0 1.45,1.45 h 24.11 a 51.94,50.38 0 0 0 51.94,-50.38 v -7.5 a 51.94,50.38 0 0 0 -51.94,-50.38 h -24.11 a 1.45,1.45 0 0 0 -1.45,1.45 z m 11.08,230.08 c 7.1,4.52 17.96,5.82 25.67,6.19 q 5.02,0.23 12.01,-0.98 c 17.73,-3.05 30.77,-11.31 38.4,-27.94 q 10.78,-23.46 3.11,-48.28 c -8.47,-27.43 -30.89,-38.24 -57.98,-39.03 q -14.37,-0.41 -28.75,-0.14 -1.52,0.03 -1.74,0.13 a 2.95,1.83 -19.4 0 0 -1.78,2.21 c 0.48,7.28 0.04,15.87 0.03,21.25 q -0.04,29.86 0.21,59.71 c 0.09,11.3 0.69,20.43 10.82,26.88 z"
       id="path86"
       style="stroke-width:1.08099" />
    <g
       fill="none"
       stroke-width="2.16201"
       id="g42">
      <path
         stroke="#808080"
         d="m 1124.59,252.12 q -0.56,-46.01 -1.85,-92.35 c -0.09,-3.48 -0.5,-6.72 -1.03,-10.09 q -0.08,-0.51 -0.48,-0.84 c -1.59,-1.32 -3.92,-1.96 -5.4,-2.64 q -86.93,-39.93 -173.91,-79.78 -3.57,-1.64 -5.88,-0.67 -83.36,34.89 -166.84,69.5 c -4.46,1.85 -12,5.3 -12,10.75 q 0.04,45.77 0.06,91.55 c 0,1.51 0.58,3.86 -0.07,5.95 q -0.15,0.49 -0.61,0.27 -36.53,-17.44 -73.04,-34.91 c -4.04,-1.93 -5.97,-1.61 -9.86,0.07 q -86.22,37.24 -172.31,74.79 c -2.53,1.1 -3.84,2.86 -3.86,5.53 q -0.19,38.57 0.2,77.16 c 0.11,11.87 -1.12,26.23 -0.65,39.45 q 0.09,2.58 -0.34,8.24 c -0.57,7.61 1.88,14.47 2.57,21.91 a 2.48,2.47 0 0 0 2.24,2.23 c 4.9,0.46 8.39,1.44 12.95,3.92 q 110.88,60.21 166.75,90.12 c 5.25,2.81 9.43,2.19 14.95,-0.52 q 54.94,-27 109.9,-53.97 c 4.94,-2.42 7,-0.89 11.17,1.43 q 68.44,38.1 136.95,76.06 c 2.23,1.24 8.33,4.92 10.74,3.67 l 136.54,-70.74 c 5.01,-2.59 8.05,-2.28 13.22,0.38 32.52,16.78 64.56,34.69 96.74,52.09 7.13,3.86 9.57,3.83 17.22,-0.2 q 4.17,-2.2 10.32,-5.22 78.89,-38.8 157.81,-77.57 0.51,-0.25 0.5,-0.82 c -0.53,-47.35 -1.52,-94.71 -2.46,-142.06 -0.06,-2.69 0.45,-7.78 -1.07,-10.05 -1.75,-2.63 -6.57,-5.05 -9.41,-6.4 q -83.88,-39.64 -167.61,-79.59 -3.55,-1.7 -6.33,-2.66 -0.54,-0.19 -1.06,0.04 l -84.05,36.42 a 0.51,0.5 -12.2 0 1 -0.71,-0.45"
         vector-effect="non-scaling-stroke"
         id="path2"
         style="stroke-width:2.16641" />
      <path
         stroke="#b2c2e1"
         d="m 1436.25,498.46 q 1.78,-1.34 3.16,-0.11 0.39,0.35 0.34,0.88 -0.08,0.91 0.21,1.77"
         vector-effect="non-scaling-stroke"
         id="path4"
         style="stroke-width:2.16641" />
      <path
         stroke="#808080"
         d="m 1439.96,501 c 1.25,6.9 3.1,12.91 0.99,19.83 -1.56,5.15 9.48,2.51 11.34,1.89 a 0.76,0.75 -23.9 0 0 0.42,-1.08 c -1.41,-2.48 -2.77,-4.58 -3.35,-7.46 -1.63,-8.04 -5.02,-19.92 -2.78,-27.76 a 1.69,1.68 -86.8 0 0 -1.9,-2.13 q -4.06,0.7 -6.93,3.33 -0.4,0.36 -0.53,0.89 c -0.92,4.02 -1.29,7.53 -3.5,11.21 q -3.52,5.86 -5.99,12.3 a 0.66,0.65 40 0 1 -1.17,0.1 c -1.46,-2.36 -1.85,-5.4 -2.7,-7.54 q -3.49,-8.79 -7.58,-17.31 c -1.35,-2.8 -6.73,-2.79 -9.32,-2.77 a 0.66,0.66 0 0 0 -0.59,0.95 c 1.5,3.01 3.72,6.7 3.08,10.21 -0.84,4.67 -2.75,9.35 -3.67,13.52 q -0.76,3.48 -1.55,6.97 -0.12,0.5 -0.53,0.82 c -1.36,1.06 -6.07,4.87 -2.09,6.35 q 0.48,0.18 0.97,0.06 c 2.24,-0.56 6.54,0.39 7.33,-1.75 q 0.24,-0.65 -0.33,-1.05 l -3.18,-2.21 q -1.01,-0.71 -0.73,-1.91 l 4.57,-19.74 q 0.09,-0.4 0.01,-0.8 l -0.13,-0.74 a 0.63,0.63 0 0 1 0.88,-0.69 c 2.58,1.17 6,12.57 6.78,14.3 q 3,6.66 6.21,13.51 0.33,0.69 1.63,0.38 c 0.91,-0.21 4.92,-13.11 5.41,-14.76 1.1,-3.71 3.15,-6.33 5.22,-9.46"
         vector-effect="non-scaling-stroke"
         id="path6"
         style="stroke-width:2.16641" />
      <path
         stroke="#334261"
         d="m 1439.96,501 v -2.9 q 0,-0.48 -0.45,-0.64 -2.24,-0.78 -3.26,1"
         vector-effect="non-scaling-stroke"
         id="path8"
         style="stroke-width:2.16641" />
      <path
         stroke="#808080"
         d="m 1381.78,486.61 q 4.09,-0.94 8,0.13 c 3.33,0.91 1.8,4.85 4.13,4.76 q 0.58,-0.03 0.68,-0.6 0.51,-2.99 -0.46,-5.86 -0.16,-0.5 -0.69,-0.54 c -5.92,-0.4 -12.4,0.59 -17.55,0.45 q -7.86,-0.22 -10.4,-0.46 c -5.71,-0.54 -5.08,3.82 -6.04,7.69 a 0.55,0.54 -21.1 0 0 0.98,0.43 c 3.5,-5.17 5.48,-7.83 12.47,-6.32 q 0.57,0.12 0.55,0.71 -0.6,12.72 -0.45,25.44 c 0.04,3.62 -1.12,6.68 -2.06,10.12 q -0.37,1.32 1.01,1.28 l 10.44,-0.33 a 1.05,1.05 0 0 0 0.96,-1.42 c -1.07,-2.87 -1.84,-5.62 -1.83,-8.85 q 0,-12.97 -0.27,-25.95 -0.01,-0.56 0.53,-0.68 m -120.81,113.64 c 0.49,2.31 9.22,0.89 10.56,0.63 a 2.26,2.26 0 0 1 2.7,2.21 q 0.08,27.35 -0.03,54.6 -0.02,5.22 -2.38,10.83 -0.18,0.42 -0.59,0.61 -6.59,3.03 -13.72,4.36 a 0.75,0.75 0 0 0 -0.28,1.36 c 2.94,1.97 10.05,2.19 13.52,2.19 q 18.04,0 36.06,-0.07 c 2.79,-0.01 5.29,-0.44 7.87,-1.13 q 2.29,-0.61 0.57,-2.24 -1.08,-1.02 -2.57,-1.22 c -8.92,-1.18 -14.83,-4.76 -14.91,-14.63 q -0.22,-27.88 0.41,-55.32 a 1.68,1.67 -88.3 0 1 1.73,-1.64 q 6.87,0.22 13.59,0.46 c 5.5,0.21 4.44,-7.07 -1.34,-6.6 q -6.79,0.55 -12.35,0.01 c -2.55,-0.24 -2.01,-2.12 -2.03,-3.92 -0.16,-16.55 -2.16,-30.84 5.88,-43.19 q 0.27,-0.42 0.74,-0.62 c 9.28,-3.97 16.89,-0.7 20.77,8.46 1.69,4 1.53,9.5 2.65,14.27 q 0.18,0.78 0.83,0.32 c 3.44,-2.47 6,-6.19 8.26,-8.81 q 5.25,-6.05 9.46,-12.93 a 1.11,1.11 0 0 0 -0.58,-1.63 c -8.83,-3.02 -19.41,-6.19 -28.86,-6.6 q -5.67,-0.24 -7.63,0.28 c -12.63,3.36 -24.19,5.48 -30.35,18.15 -4.78,9.82 -4.7,17.11 -5.22,26.77 -0.2,3.8 -3.83,11.21 -7.4,12.93 q -2.16,1.04 -4.7,1.23 a 0.74,0.73 -8.3 0 0 -0.66,0.88 m -544.148,-31.8 a 14,13.71 89.5 0 0 13.587,-14.12 14,13.71 89.5 0 0 -13.831,-13.88 14,13.71 89.5 0 0 -13.587,14.12 14,13.71 89.5 0 0 13.831,13.88"
         vector-effect="non-scaling-stroke"
         id="path10"
         style="stroke-width:2.16641" />
      <path
         stroke="#b2c2e1"
         d="m 529.09,579.02 q -0.16,0.7 -0.08,1.44 0.04,0.33 0.13,0.01 l 1.72,-5.89"
         vector-effect="non-scaling-stroke"
         id="path12"
         style="stroke-width:2.16641" />
      <path
         stroke="#808080"
         d="m 530.86,574.58 c 4.05,3.1 4.08,5.65 5.74,9.92 q 14.77,37.96 29.9,75.79 1.89,4.72 5.03,14.13 0.18,0.56 0.74,0.73 3.08,0.97 5.83,-0.83 0.46,-0.3 0.6,-0.83 2.03,-7.43 3.9,-12.16 8.39,-21.22 21.04,-51.23 c 4.99,-11.85 8.83,-24.02 14.72,-35.56 a 0.99,0.99 0 0 1 1.85,0.27 c 0.87,4.78 0.74,9.91 1.74,14.54 q 2.73,12.53 3.94,25.29 c 1.31,13.73 5.03,28.89 5.84,40.62 0.74,10.65 -6.57,14.83 -15.33,17.83 -3.08,1.05 0.32,3.4 1.85,3.52 10.84,0.85 22.13,0.45 34.53,0.25 6.26,-0.1 15.51,0.42 23.68,-0.68 a 1.9,1.89 14.9 0 0 1.27,-0.73 q 1.66,-2.21 -1.25,-2.92 c -8.34,-2.03 -14.61,-4.82 -16.22,-14.05 -1.37,-7.82 -3.28,-15.61 -4.19,-23.39 q -1.92,-16.39 -4.63,-32.65 c -2.17,-13 -4.25,-27.62 -2.7,-40.69 q 0.55,-4.64 4.93,-6.11 c 1.79,-0.61 9.09,-2.06 7.84,-4.96 a 1.45,1.44 78.8 0 0 -1.29,-0.87 q -19.11,-0.26 -37.97,0.2 -1.87,0.04 -3.21,0.57 -0.5,0.2 -0.68,0.71 c -1.68,4.76 -3.11,9.52 -5.12,14.09 -9.74,22.24 -18.35,44.85 -27.85,67.31 a 1.14,1.14 0 0 1 -2.1,0 c -1.27,-2.99 -1.83,-6.57 -2.97,-9.46 Q 567.3,590.34 554.3,557.44 c -0.74,-1.86 -1.16,-4.45 -2.05,-6.13 a 3.09,3.09 0 0 0 -2.77,-1.63 q -20.43,0.41 -40.68,-0.67 c -1.91,-0.1 -3.44,0.78 -2.3,2.91 a 1.51,1.5 -9.4 0 0 1.08,0.77 q 9.32,1.43 15.03,8.32 c 2.82,3.4 -0.73,11.58 -1.02,14.56 -2.6,26.01 -8.17,51.81 -11.85,77.68 q -0.81,5.68 -5.6,13.61 c -2.55,4.21 -15.12,6.08 -15.02,7.85 a 0.78,0.78 0 0 0 0.56,0.69 q 5.67,1.6 11.07,1.52 c 10.63,-0.16 24.28,1.32 34.37,-1.71 a 0.74,0.73 50.6 0 0 0.13,-1.35 q -1.37,-0.74 -3.13,-1.01 -10.23,-1.61 -13.24,-10.52 c -1.42,-4.2 -0.52,-9.87 -0.65,-14.71 q -0.02,-0.48 0.25,-0.88 0.59,-0.9 0.81,-1.93 c 2.52,-12.14 4.06,-25.68 5.86,-36.64 q 2.38,-14.52 3.94,-29.15"
         vector-effect="non-scaling-stroke"
         id="path14"
         style="stroke-width:2.16641" />
      <path
         stroke="#334261"
         d="m 530.86,574.58 q -2.69,0.38 -1.77,4.44"
         vector-effect="non-scaling-stroke"
         id="path16"
         style="stroke-width:2.16641" />
      <path
         stroke="#808080"
         d="m 1365.51,593.99 -0.01,-30.04 a 1.59,1.59 0 0 0 -2.79,-1.04 q -9.11,10.57 -18.03,20.78 -2.36,2.7 -5.96,5.45 -5.51,4.2 -11.05,9.72 a 1.32,1.31 -66.9 0 0 0.9,2.25 l 12.53,0.21 a 0.75,0.75 0 0 1 0.74,0.72 q 0.27,8.07 0.17,16.1 c -0.14,11.36 0.18,22.51 -0.23,33.76 -0.49,13.79 5.49,24.34 19.76,26.45 3.66,0.54 14.69,1.06 17.97,-0.07 5.46,-1.89 15.88,-8.13 14.67,-15.15 a 0.38,0.38 0 0 0 -0.62,-0.23 c -3.51,2.97 -9.95,7.66 -14.77,6.81 -12.04,-2.12 -13.25,-10.77 -13.25,-22.02 q 0,-22.52 -0.28,-45.51 a 1.52,1.52 0 0 1 1.64,-1.53 q 11.26,0.9 22.96,-0.72 c 2.25,-0.31 4.51,-1.21 3.22,-3.94 a 1.51,1.51 0 0 0 -1.33,-0.86 l -25.57,-0.45 q -0.67,-0.01 -0.67,-0.69 m -293.7,35.96 c 8.33,13.36 43.81,14.21 44.51,31.07 0.26,6.16 -4.19,11.77 -10.1,13.45 -16.57,4.68 -29.56,-13.21 -35.66,-25.58 q -1.27,-2.58 -2.84,-0.28 a 1.61,1.59 -29.1 0 0 -0.27,0.92 l 0.63,28.15 q 0.04,1.66 1.6,1.1 7.06,-2.57 15.57,-1.21 c 7.65,1.22 19.79,2.79 27.02,-0.36 7.8,-3.41 15.66,-10.43 17.62,-19.13 5.01,-22.3 -11.81,-30.72 -29.27,-37.66 -6.84,-2.71 -22.56,-8.65 -15.44,-18.73 4.14,-5.85 10.91,-7.14 17.71,-4.85 q 13.74,4.62 20.12,18.23 c 0.12,0.26 1.07,1.16 1.26,1.17 a 1.05,1.01 2.9 0 0 1.13,-0.99 l 0.34,-22.34 a 1.14,1.14 0 0 0 -1.71,-1.01 c -3.38,1.95 -7.1,3.15 -11.15,1.93 -14.23,-4.28 -27.06,-4.38 -38.46,6.14 -8.26,7.63 -8.24,20.95 -2.61,29.98 m -302.47,37.47 c 10.59,9.79 23.59,12.14 37.47,11.59 16.66,-0.66 29.65,-7.53 38.43,-21.76 q 0.56,-0.9 0.05,-1.63 -0.3,-0.43 -0.75,-0.17 c -0.92,0.53 -2.12,1.15 -2.89,1.89 -6.95,6.74 -15.31,11.6 -25.05,12.32 -31.47,2.33 -39.1,-34.03 -30.12,-56.44 4.48,-11.19 16.51,-18.8 28.64,-16.78 11.2,1.86 20.05,12.23 25.47,22.22 q 1.15,2.12 2.93,0.67 0.36,-0.3 0.45,-0.75 0.41,-2.14 0.35,-2.84 -1.04,-11.9 -1.69,-23.54 a 1.21,1.2 73.8 0 0 -1.79,-0.99 l -6.83,3.81 q -0.42,0.23 -0.9,0.22 c -0.64,-0.01 -1.5,0.05 -2.08,-0.14 -15.31,-4.95 -31.09,-5.46 -46.09,0.84 q -19.39,8.14 -25.98,27.31 c -5.18,15.08 -1.36,33.31 10.38,44.17 m 177.57,-26.6 c 1.94,18.34 16.24,31.65 33.33,36.52 5.94,1.69 14.81,2.05 20.48,1.89 q 19.37,-0.56 33.76,-13.23 c 8.68,-7.63 10.92,-15.9 13.46,-26.57 1.26,-5.31 -0.33,-9.44 -1.66,-14.94 q -2.64,-10.87 -10.16,-17.88 -5.85,-5.47 -7.85,-6.64 c -13.04,-7.68 -31.63,-11.86 -46.28,-6.68 -5.03,1.77 -10.5,3.47 -14.64,6.02 -14.9,9.17 -22.31,23.93 -20.44,41.51 m 200.31,-11.54 c -5.95,52.12 66.2,65.84 92.53,31.21 5.38,-7.07 6.53,-13.78 8.54,-21.73 1.27,-5.02 -1.48,-14.45 -2.83,-18.24 -3.69,-10.37 -13.87,-19.67 -23.41,-23.78 q -26.31,-11.32 -51.26,0.83 c -12.12,5.91 -22.01,18 -23.57,31.71 M 892.31,615.47 c -2.17,-6.48 -1.05,-16.43 -1.06,-23.22 q 0,-0.77 -0.77,-0.73 -18.25,0.92 -35.49,2.43 -1.32,0.12 -0.9,1.91 0.11,0.49 0.59,0.65 c 2.67,0.91 4.74,1.01 6.86,2.9 5.37,4.78 6.31,9.37 6.24,16.93 -0.17,18.35 0.77,31.09 -0.07,44.24 -0.54,8.43 -7.73,10.55 -14.21,13.13 a 0.97,0.97 0 0 0 -0.22,1.68 c 2.06,1.52 8.65,1.71 11.22,1.71 q 15.28,0 30.56,-0.03 5.49,-0.01 9.55,-1.45 a 1.16,1.16 0 0 0 0.03,-2.18 c -2.49,-0.96 -12.6,-3.86 -12.78,-5.93 q -1.34,-16.12 -0.23,-40.76 0.19,-4.28 1.42,-5.92 c 2.4,-3.2 9.26,-7.37 12.51,-8.67 7.65,-3.05 17.01,4.44 21.93,9.62 a 0.54,0.54 0 0 0 0.93,-0.3 q 1.35,-9.34 4.23,-17.89 c 0.69,-2.05 0.74,-3.65 -0.37,-5.36 -3.56,-5.52 -9.23,-7.27 -15.62,-6 -11.56,2.31 -18.3,13.8 -23.72,23.3 a 0.35,0.35 0 0 1 -0.63,-0.06 M 693.19,596.56 c 4.31,0.79 11.51,5.97 11.92,11.12 1.25,15.49 -0.12,27.87 0.34,47.24 0.08,3.39 -0.25,6.79 -0.69,10.02 -0.76,5.58 -8.34,7.25 -12.78,8.82 a 1.02,1.02 0 0 0 -0.03,1.91 c 3.21,1.25 6.26,1.2 9.74,1.26 q 19.72,0.36 39.43,-0.33 1.7,-0.06 1.59,-1.76 -0.04,-0.7 -0.49,-1.41 -0.27,-0.43 -0.76,-0.56 c -8.81,-2.35 -13.25,-7.1 -12.79,-16.58 1,-20.88 0.3,-42.02 0.53,-62.8 a 1.55,1.54 0.2 0 0 -1.56,-1.56 c -11.32,0.13 -23.59,0.55 -34.38,2.56 q -0.48,0.09 -0.65,0.54 -0.49,1.34 0.58,1.53 M 470.11,697.72 c 12.83,-0.39 25.59,0.55 39.14,0.63 q 35.28,0.21 54.56,0.13 c 138.53,-0.62 277.09,-0.28 415.63,-0.19 90.84,0.06 181.66,0.47 272.55,0.04 51.83,-0.25 103.74,-0.31 155.57,0.15 7.45,0.06 15.13,-0.61 22.72,-0.93 7.09,-0.3 14.88,0.16 22.35,0.22 q 0.47,0.01 0.79,-0.34 1.66,-1.85 0.31,-3.9 -0.28,-0.41 -0.78,-0.4 c -15.57,0.48 -32.14,-0.48 -46.5,-0.45 q -82.45,0.17 -164.89,0.13 c -242.59,-0.1 -485.18,-0.16 -727.75,-0.04 -12.1,0.01 -28.47,1.04 -42.85,0.3 q -0.51,-0.02 -0.88,0.33 -1.73,1.63 -0.67,3.9 a 0.74,0.74 0 0 0 0.7,0.42 m 857.8,34.55 a 23.92,23.92 0 0 0 -23.92,-23.92 23.92,23.92 0 0 0 -23.92,23.92 23.92,23.92 0 0 0 23.92,23.92 23.92,23.92 0 0 0 23.92,-23.92 M 1161.73,898.9 q 5.19,-0.6 9.08,-0.61 43.19,-0.08 86.46,-0.03 a 0.86,0.85 79.7 0 1 0.78,0.55 q 7.88,20.82 15.7,41.69 c 3.44,9.18 6.12,15.67 4.33,23.75 -2.21,9.91 -17.29,12.99 -25.64,15.42 -1.02,0.29 -2.73,0.31 -3.95,0.96 q -0.49,0.27 -0.49,0.82 v 5.52 a 0.8,0.8 0 0 0 0.8,0.8 q 63.4,-0.02 124.7,-0.02 0.61,0 2.56,-0.4 0.51,-0.11 0.7,-0.59 c 0.55,-1.41 1.55,-5.59 -0.5,-6.01 -13.39,-2.74 -24.22,-7.28 -31.55,-18.96 -7.19,-11.46 -12.35,-22.17 -17.58,-35.86 q -39.71,-103.98 -79.44,-208.08 a 1,0.98 77.9 0 0 -0.96,-0.64 q -16.23,0.63 -31.98,0.01 c -1.94,-0.07 -2.67,0.09 -3.4,2.01 q -38.32,101.21 -76.48,202.47 c -9.19,24.37 -21.08,53.18 -48.15,58.17 q -0.62,0.11 -0.64,0.74 l -0.12,6.57 q -0.01,0.74 0.73,0.74 l 82.12,-0.29 a 2.17,2.17 0 0 0 2.1,-1.66 c 1.68,-7.01 -11.45,-8.82 -15.91,-12.15 q -4.49,-3.36 -8.06,-7.74 c -4.12,-5.03 -3.6,-16.04 -1.72,-21.88 q 5.73,-17.81 12.77,-35.17 c 1.31,-3.22 2.22,-6.15 3.02,-9.49 q 0.14,-0.57 0.72,-0.64 m -478.8,2.42 a 0.37,0.37 0 0 1 -0.66,-0.05 q -25.95,-65.08 -51.6,-130.2 -3.3,-8.38 -5.06,-14.13 c -4.66,-15.22 7.95,-25.08 21.62,-25.92 q 0.61,-0.04 0.63,-0.65 l 0.2,-6.28 q 0.02,-0.63 -0.62,-0.63 -57.63,0.09 -115.26,0.02 c -1.19,0 -3.07,-0.45 -4.66,-0.17 q -0.56,0.1 -0.52,0.66 l 0.39,6.07 a 1.29,1.29 0 0 0 1.21,1.21 c 26.79,1.67 36.76,28.29 45.18,49.34 q 42.23,105.53 84.1,211.29 a 1.54,1.53 83.8 0 0 1.18,0.96 q 3.38,0.56 6.51,-0.67 0.5,-0.2 0.69,-0.71 c 24.66,-66.95 50.73,-133.45 76.39,-200.03 7.01,-18.18 16.59,-45.68 32.17,-53.86 q 6.54,-3.43 14.72,-6.87 c 2.87,-1.22 3.7,-3.18 3.06,-6.09 a 1.41,1.4 83.9 0 0 -1.37,-1.11 h -84.42 q -0.7,0 -0.65,0.7 l 0.38,5.92 q 0.05,0.62 0.64,0.74 c 2.09,0.45 4.35,0.62 6.15,1.11 25.5,7.01 24.51,25.6 16.57,46.74 q -21.71,57.83 -43.61,115.6 -1.4,3.7 -3.36,7.01 M 988.48,848.9 q -2.68,-0.86 -0.09,-1.96 c 16.32,-6.92 30.14,-11.34 42.95,-24.46 12.07,-12.36 14.74,-28.35 13.55,-44.92 -1.79,-24.98 -23.7,-42.21 -46.85,-48.3 -11.64,-3.06 -23.7,-5.79 -35.79,-5.8 q -72.47,-0.03 -144.95,0.11 -0.48,0.01 -0.88,0.28 -1.16,0.82 -0.56,2.36 0.18,0.48 0.16,0.99 -0.07,2.04 1.11,3.64 0.33,0.44 0.87,0.53 c 8.64,1.3 16.02,2.73 22.91,8.75 7.27,6.37 7.58,17.5 7.54,26.38 q -0.35,90.01 -0.16,180.02 c 0.04,21.68 -9.22,29.36 -29.77,32.61 q -1.67,0.26 -1.87,1.95 l -0.67,5.64 a 0.81,0.8 -85 0 0 0.75,0.9 q 7.34,0.41 13.89,0.29 c 46.45,-0.81 92.93,0.39 139.39,-0.14 11.93,-0.14 22.31,-1.5 33.49,-3.71 29.8,-5.9 56.66,-29.88 57.43,-61.99 0.38,-15.67 -2.07,-28.5 -11.19,-41.24 -11.9,-16.62 -31.29,-23.67 -49.99,-29.5 -3.57,-1.11 -7.77,-1.31 -11.27,-2.43"
         vector-effect="non-scaling-stroke"
         id="path18"
         style="stroke-width:2.16641" />
      <path
         stroke="#334261"
         d="m 1091.37,151.8 c -1.75,-0.38 -4.33,-2.08 -6.05,-2.87 q -72.2,-33.14 -144.31,-66.45 -5.9,-2.73 -12.72,0.33 c -44.81,20.1 -90.31,38.94 -135.42,58.38 q -1.63,0.7 -2.37,1.12 a 1.27,1.27 0 0 0 0.05,2.24 l 159.85,79.87 q 0.51,0.26 1.03,0 66.57,-34.18 133.31,-68.05 c 2.06,-1.05 4.38,-2.73 6.71,-3.86 q 1,-0.48 -0.08,-0.71 M 782.94,256.06 q 20.13,9.75 40.4,19.33 c 7.84,3.7 10.17,5.66 17.73,2.48 q 47.66,-20.03 95.17,-39.66 a 0.61,0.6 -44.1 0 0 0.02,-1.11 q -5.37,-2.38 -10.59,-4.88 -69.52,-33.16 -138.8,-66.81 c -3.94,-1.91 -7.93,-3.41 -11.99,-4.94 a 1.84,1.83 10.2 0 0 -2.48,1.72 l 0.26,87.72 q 0,0.55 0.46,0.85 3.5,2.24 9.82,5.3 m 184.53,-18.83 c 42.09,19.28 84.11,38.68 126.33,57.66 3.51,1.58 8.13,3.54 11.61,1.52 q 0.44,-0.26 0.63,-0.74 1.41,-3.61 1.44,-7.92 0.49,-65.75 0.14,-118.46 -0.01,-0.44 -0.45,-0.39 -2.9,0.36 -5.12,1.46 -45.43,22.5 -112.32,56.1 -11,5.53 -22.24,9.98 a 0.43,0.43 0 0 0 -0.02,0.79"
         vector-effect="non-scaling-stroke"
         id="path20"
         style="stroke-width:2.16641" />
      <path
         stroke="#6d3e19"
         d="m 529.11,290.27 q 78.25,37.88 155.46,76.4 6.31,3.15 12.72,-0.13 36.95,-18.93 73.91,-37.73 a 1.93,1.92 76.8 0 0 1.06,-1.72 q -0.03,-9.04 0.01,-18.01 c 0,-1.38 0.88,-2.81 2.03,-3.31 q 19.89,-8.63 40.43,-16.87 a 0.54,0.53 -46.2 0 0 -0.02,-1 c -6.7,-2.37 -12.96,-4.87 -19.71,-7.98 Q 738.38,253.78 681.84,227.46 c -4.82,-2.25 -6.42,-2.51 -11.15,-0.53 q -63.92,26.75 -127.76,53.65 c -4.89,2.06 -10.39,3.56 -14.21,7.27 a 1.5,1.5 0 0 0 0.39,2.42"
         vector-effect="non-scaling-stroke"
         id="path22"
         style="stroke-width:2.16641" />
      <path
         stroke="#4b1440"
         d="m 1122.29,307.56 q 5.77,3.2 11.67,5.95 c 3.42,1.6 3.77,2.62 3.75,6.26 -0.03,5.31 -0.81,11.19 0.7,16.31 q 0.14,0.49 0.59,0.7 38.69,18.64 76.75,38.53 c 3.2,1.67 6.69,2.94 10.26,1.33 3.26,-1.47 6.52,-2.88 9.69,-4.52 q 67.01,-34.73 117.38,-60.02 5.66,-2.85 9.87,-5.61 0.59,-0.39 -0.06,-0.69 -72.49,-33.54 -144.97,-67.11 c -5.64,-2.61 -9.98,-4.9 -16.13,-2.43 q -25.72,10.3 -72.56,31.28 c -4.18,1.87 -3.64,3.97 -3.68,7.92 q -0.11,12.75 -0.37,25.54 -0.01,0.54 -0.37,0.95 l -2.92,3.32 a 1.49,1.49 0 0 0 0.4,2.29"
         vector-effect="non-scaling-stroke"
         id="path24"
         style="stroke-width:2.16641" />
      <path
         stroke="#706b00"
         d="m 802.04,312.64 c 3.33,2.13 6.47,4.11 10.17,5.88 q 73.32,34.99 146.46,70.35 c 2.24,1.08 2.4,2.73 5.41,1.29 q 71.12,-33.97 142.25,-68.18 a 0.65,0.65 0 0 0 -0.01,-1.17 q -75.9,-34.85 -152.21,-70.47 -3.2,-1.49 -5.54,-0.51 -72.96,30.64 -145.94,61.21 -0.95,0.39 -0.81,1.27 a 0.49,0.45 13.5 0 0 0.22,0.33"
         vector-effect="non-scaling-stroke"
         id="path26"
         style="stroke-width:2.16641" />
      <path
         stroke="#6d3e19"
         d="m 623.07,357.07 q -46.9,-22.78 -93.75,-45.64 -7.88,-3.84 -16.15,-6.96 a 0.58,0.58 0 0 0 -0.79,0.56 c 1.2,38.96 -0.27,77.99 0.6,117.01 a 1.02,1.01 5.9 0 0 0.79,0.96 c 5.12,1.15 9.02,3.4 13.62,5.87 q 67.88,36.53 135.88,72.84 9.26,4.94 14.65,7.33 c 6.55,2.89 4.66,-17.99 4.66,-20.04 q 0,-0.48 0.23,-0.91 c 0.76,-1.43 0.28,-2.61 0.27,-3.84 q -0.12,-23.82 -0.07,-47.64 c 0.01,-5.25 0.4,-14.86 0,-22.35 -0.66,-12.35 -0.89,-18.68 -1.06,-28.1 a 1.43,1.43 0 0 0 -0.79,-1.26 c -19.24,-9.48 -38.78,-18.45 -58.09,-27.83"
         vector-effect="non-scaling-stroke"
         id="path28"
         style="stroke-width:2.16641" />
      <path
         stroke="#4b1440"
         d="m 1234.6,509.44 q 0.01,4.15 -0.37,8.7 -0.15,1.82 1.59,1.26 3.69,-1.18 8.22,-3.41 67.74,-33.38 135.23,-67.51 0.39,-0.2 0.39,-0.64 l 0.13,-126.89 a 0.75,0.74 -10.4 0 0 -1.01,-0.69 q -10,3.76 -19.86,8.9 -62.13,32.37 -124.28,64.86 a 0.91,0.9 -14.3 0 0 -0.49,0.82 q 0.31,57.29 0.45,114.6"
         vector-effect="non-scaling-stroke"
         id="path30"
         style="stroke-width:2.16641" />
      <path
         stroke="#706b00"
         d="m 787.67,442.73 c -0.2,2.34 2.65,4.03 4.39,4.96 q 33.88,18.21 156.76,83.99 c 2.02,1.08 9.07,4.72 8.95,-0.93 q -0.19,-9.76 -0.03,-16.11 c 0.08,-3.1 -0.67,-6.98 -0.11,-10.59 0.43,-2.76 0.05,-5.01 0.09,-7.3 q 0.78,-41.89 -0.66,-83.75 -0.11,-3.25 -0.44,-5.71 -0.16,-1.21 -1.26,-1.74 -76.73,-37.09 -153.38,-74.07 -5.9,-2.84 -12.68,-5.5 a 1.09,1.08 -78.9 0 0 -1.48,1 q -0.46,56.93 -0.02,114.14 0,0.1 -0.13,1.61 m 187.49,-36.09 q -0.4,9.33 -0.15,18.05 1.14,41 2.33,81.99 0.35,12.02 0.09,24.7 a 0.75,0.75 0 0 0 1.04,0.71 q 9.54,-4 19.17,-8.62 55.83,-26.8 111.62,-53.68 c 4.16,-2 8.29,-3.58 12.52,-5.16 a 0.67,0.67 0 0 0 0.44,-0.63 q 0.12,-10 -0.07,-19.94 -0.95,-48.97 -2.07,-97.93 c -0.07,-2.98 0.41,-6.96 0.25,-10.47 q -0.02,-0.53 -0.56,-0.58 -2.59,-0.24 -3.78,0.35 -66.32,33.04 -132.6,66.16 -3.73,1.87 -7.17,3.47 a 1.83,1.81 79.2 0 0 -1.06,1.58"
         vector-effect="non-scaling-stroke"
         id="path32"
         style="stroke-width:2.16641" />
      <path
         stroke="#6d3e19"
         d="m 791.95,465.38 q -7.9,-4.67 -15.15,-8.49 c -2.25,-1.18 -4.61,-2.67 -4.57,-5.13 0.51,-34.3 0.09,-68.56 0.52,-102.89 q 0.01,-0.6 -0.58,-0.48 -3.53,0.75 -6.18,2.11 -18.51,9.5 -62.52,32.55 -0.44,0.23 -0.94,0.24 -0.81,0 -1.52,0.36 -0.48,0.24 -0.49,0.78 -0.12,11.38 0.14,22.76 1.17,51.8 1.98,103.43 a 0.36,0.36 0 0 0 0.49,0.33 q 10.79,-4.21 21,-9.5 34.02,-17.6 67.74,-34.12 a 1.11,1.11 0 0 0 0.08,-1.95"
         vector-effect="non-scaling-stroke"
         id="path34"
         style="stroke-width:2.16641" />
      <path
         stroke="#4b1440"
         d="m 1212.52,506.5 q 0.12,0 0.26,0.01 0.23,0.01 0.22,-0.23 -0.44,-8.51 0.47,-22.03 1.19,-17.94 -0.21,-48 -0.4,-8.62 0.26,-38.25 0.02,-0.73 -0.42,-2.78 -0.11,-0.49 -0.53,-0.77 c -1.65,-1.08 -3.4,-2.3 -5.21,-3.16 q -33.44,-15.78 -67.21,-32.5 a 1.57,1.57 0 0 0 -2.27,1.31 q -0.12,2.03 -0.12,4.65 0.13,50.75 -0.02,101.5 -0.01,1.83 -0.56,3.61 -0.15,0.5 -0.58,0.78 -3.6,2.39 -7.99,2.85 a 0.88,0.88 0 0 0 -0.34,1.64 c 25.6,14.42 51.82,27.76 77.73,41.61 1.98,1.07 3.63,2.51 5.19,4.03 a 0.47,0.47 0 0 0 0.79,-0.32 l 0.5,-13.91 q 0,-0.04 0.04,-0.04"
         vector-effect="non-scaling-stroke"
         id="path36"
         style="stroke-width:2.16641" />
      <path
         stroke="#808080"
         d="m 975.97,657.63 c 3.16,10.07 11.91,17.77 22.72,17.47 12.89,-0.36 19.99,-14.56 21.78,-25.6 2.85,-17.63 2.54,-49.67 -21.42,-53.42 -7.85,-1.23 -15.47,3.77 -19.63,10.01 q -2.52,3.78 -4.37,11.9 c -3.17,13.87 -3.6,25.19 0.92,39.64 m 199.27,-4 c 3,10.49 7.43,18.99 19.23,21.19 18.02,3.38 26.47,-17.84 26.96,-31.76 0.5,-14.27 0.73,-34.79 -13.01,-43.72 -12.72,-8.27 -28.27,-0.09 -31.86,13.7 -3.81,14.64 -5.43,26.25 -1.32,40.59 m 144.626,70.22 a 17.94,17.65 -28.5 0 0 -24.188,-6.951 17.94,17.65 -28.5 0 0 -7.344,24.071 17.94,17.65 -28.5 0 0 24.188,6.951 17.94,17.65 -28.5 0 0 7.344,-24.071"
         vector-effect="non-scaling-stroke"
         id="path38"
         style="stroke-width:2.16641" />
      <path
         stroke="#808080"
         d="m 1306.043,739.63 a 6.89,6.27 68.7 0 0 3.339,-8.698 6.89,6.27 68.7 0 0 -8.345,-4.141 6.89,6.27 68.7 0 0 -3.339,8.697 6.89,6.27 68.7 0 0 8.345,4.141 M 1245,880.8 c 1.52,0.01 3.78,0.36 5.66,0.37 q 0.65,0 0.42,-0.61 -18.42,-48.25 -36.16,-96.74 c -1.37,-3.76 -3.09,-7.1 -4.89,-10.59 q -0.96,-1.87 -1.56,0.15 -0.69,2.38 -1.91,5.8 -17.83,50.05 -36.08,100.6 a 0.83,0.82 -80.2 0 0 0.78,1.11 q 36.66,-0.28 73.74,-0.09 M 906.21,737.98 v 105.36 a 1.45,1.45 0 0 0 1.45,1.45 h 24.11 a 51.94,50.38 0 0 0 51.94,-50.38 v -7.5 a 51.94,50.38 0 0 0 -51.94,-50.38 h -24.11 a 1.45,1.45 0 0 0 -1.45,1.45 m 11.08,230.08 c 7.1,4.52 17.96,5.82 25.67,6.19 q 5.02,0.23 12.01,-0.98 c 17.73,-3.05 30.77,-11.31 38.4,-27.94 q 10.78,-23.46 3.11,-48.28 c -8.47,-27.43 -30.89,-38.24 -57.98,-39.03 q -14.37,-0.41 -28.75,-0.14 -1.52,0.03 -1.74,0.13 a 2.95,1.83 -19.4 0 0 -1.78,2.21 c 0.48,7.28 0.04,15.87 0.03,21.25 q -0.04,29.86 0.21,59.71 c 0.09,11.3 0.69,20.43 10.82,26.88"
         vector-effect="non-scaling-stroke"
         id="path40"
         style="stroke-width:2.16641" />
    </g>
    <path
       d="m 1124.59,252.12 a 0.51,0.5 -12.2 0 0 0.71,0.45 l 84.05,-36.42 q 0.52,-0.23 1.06,-0.04 2.78,0.96 6.33,2.66 83.73,39.95 167.61,79.59 c 2.84,1.35 7.66,3.77 9.41,6.4 1.52,2.27 1.01,7.36 1.07,10.05 0.94,47.35 1.93,94.71 2.46,142.06 q 0.01,0.57 -0.5,0.82 -78.92,38.77 -157.81,77.57 -6.15,3.02 -10.32,5.22 c -7.65,4.03 -10.09,4.06 -17.22,0.2 -32.18,-17.4 -64.22,-35.31 -96.74,-52.09 -5.17,-2.66 -8.21,-2.97 -13.22,-0.38 l -136.54,70.74 c -2.41,1.25 -8.51,-2.43 -10.74,-3.67 Q 885.69,517.32 817.25,479.22 c -4.17,-2.32 -6.23,-3.85 -11.17,-1.43 q -54.96,26.97 -109.9,53.97 c -5.52,2.71 -9.7,3.33 -14.95,0.52 Q 625.36,502.37 514.48,442.16 c -4.56,-2.48 -8.05,-3.46 -12.95,-3.92 a 2.48,2.47 0 0 1 -2.24,-2.23 c -0.69,-7.44 -3.14,-14.3 -2.57,-21.91 q 0.43,-5.66 0.34,-8.24 c -0.47,-13.22 0.76,-27.58 0.65,-39.45 q -0.39,-38.59 -0.2,-77.16 c 0.02,-2.67 1.33,-4.43 3.86,-5.53 q 86.09,-37.55 172.31,-74.79 c 3.89,-1.68 5.82,-2 9.86,-0.07 q 36.51,17.47 73.04,34.91 0.46,0.22 0.61,-0.27 c 0.65,-2.09 0.07,-4.44 0.07,-5.95 Q 757.24,191.77 757.2,146 c 0,-5.45 7.54,-8.9 12,-10.75 q 83.48,-34.61 166.84,-69.5 2.31,-0.97 5.88,0.67 86.98,39.85 173.91,79.78 c 1.48,0.68 3.81,1.32 5.4,2.64 q 0.4,0.33 0.48,0.84 c 0.53,3.37 0.94,6.61 1.03,10.09 q 1.29,46.34 1.85,92.35 z M 1091.37,151.8 c -1.75,-0.38 -4.33,-2.08 -6.05,-2.87 q -72.2,-33.14 -144.31,-66.45 -5.9,-2.73 -12.72,0.33 c -44.81,20.1 -90.31,38.94 -135.42,58.38 q -1.63,0.7 -2.37,1.12 a 1.27,1.27 0 0 0 0.05,2.24 l 159.85,79.87 q 0.51,0.26 1.03,0 66.57,-34.18 133.31,-68.05 c 2.06,-1.05 4.38,-2.73 6.71,-3.86 q 1,-0.48 -0.08,-0.71 z M 782.94,256.06 q 20.13,9.75 40.4,19.33 c 7.84,3.7 10.17,5.66 17.73,2.48 q 47.66,-20.03 95.17,-39.66 a 0.61,0.6 -44.1 0 0 0.02,-1.11 q -5.37,-2.38 -10.59,-4.88 -69.52,-33.16 -138.8,-66.81 c -3.94,-1.91 -7.93,-3.41 -11.99,-4.94 a 1.84,1.83 10.2 0 0 -2.48,1.72 l 0.26,87.72 q 0,0.55 0.46,0.85 3.5,2.24 9.82,5.3 z m 184.53,-18.83 c 42.09,19.28 84.11,38.68 126.33,57.66 3.51,1.58 8.13,3.54 11.61,1.52 q 0.44,-0.26 0.63,-0.74 1.41,-3.61 1.44,-7.92 0.49,-65.75 0.14,-118.46 -0.01,-0.44 -0.45,-0.39 -2.9,0.36 -5.12,1.46 -45.43,22.5 -112.32,56.1 -11,5.53 -22.24,9.98 a 0.43,0.43 0 0 0 -0.02,0.79 z m -438.36,53.04 q 78.25,37.88 155.46,76.4 6.31,3.15 12.72,-0.13 36.95,-18.93 73.91,-37.73 a 1.93,1.92 76.8 0 0 1.06,-1.72 q -0.03,-9.04 0.01,-18.01 c 0,-1.38 0.88,-2.81 2.03,-3.31 q 19.89,-8.63 40.43,-16.87 a 0.54,0.53 -46.2 0 0 -0.02,-1 c -6.7,-2.37 -12.96,-4.87 -19.71,-7.98 Q 738.38,253.78 681.84,227.46 c -4.82,-2.25 -6.42,-2.51 -11.15,-0.53 q -63.92,26.75 -127.76,53.65 c -4.89,2.06 -10.39,3.56 -14.21,7.27 a 1.5,1.5 0 0 0 0.39,2.42 z m 593.18,17.29 q 5.77,3.2 11.67,5.95 c 3.42,1.6 3.77,2.62 3.75,6.26 -0.03,5.31 -0.81,11.19 0.7,16.31 q 0.14,0.49 0.59,0.7 38.69,18.64 76.75,38.53 c 3.2,1.67 6.69,2.94 10.26,1.33 3.26,-1.47 6.52,-2.88 9.69,-4.52 q 67.01,-34.73 117.38,-60.02 5.66,-2.85 9.87,-5.61 0.59,-0.39 -0.06,-0.69 -72.49,-33.54 -144.97,-67.11 c -5.64,-2.61 -9.98,-4.9 -16.13,-2.43 q -25.72,10.3 -72.56,31.28 c -4.18,1.87 -3.64,3.97 -3.68,7.92 q -0.11,12.75 -0.37,25.54 -0.01,0.54 -0.37,0.95 l -2.92,3.32 a 1.49,1.49 0 0 0 0.4,2.29 z m -320.25,5.08 c 3.33,2.13 6.47,4.11 10.17,5.88 q 73.32,34.99 146.46,70.35 c 2.24,1.08 2.4,2.73 5.41,1.29 q 71.12,-33.97 142.25,-68.18 a 0.65,0.65 0 0 0 -0.01,-1.17 q -75.9,-34.85 -152.21,-70.47 -3.2,-1.49 -5.54,-0.51 -72.96,30.64 -145.94,61.21 -0.95,0.39 -0.81,1.27 a 0.49,0.45 13.5 0 0 0.22,0.33 z m -178.97,44.43 q -46.9,-22.78 -93.75,-45.64 -7.88,-3.84 -16.15,-6.96 a 0.58,0.58 0 0 0 -0.79,0.56 c 1.2,38.96 -0.27,77.99 0.6,117.01 a 1.02,1.01 5.9 0 0 0.79,0.96 c 5.12,1.15 9.02,3.4 13.62,5.87 q 67.88,36.53 135.88,72.84 9.26,4.94 14.65,7.33 c 6.55,2.89 4.66,-17.99 4.66,-20.04 q 0,-0.48 0.23,-0.91 c 0.76,-1.43 0.28,-2.61 0.27,-3.84 q -0.12,-23.82 -0.07,-47.64 c 0.01,-5.25 0.4,-14.86 0,-22.35 -0.66,-12.35 -0.89,-18.68 -1.06,-28.1 a 1.43,1.43 0 0 0 -0.79,-1.26 c -19.24,-9.48 -38.78,-18.45 -58.09,-27.83 z m 611.53,152.37 q 0.01,4.15 -0.37,8.7 -0.15,1.82 1.59,1.26 3.69,-1.18 8.22,-3.41 67.74,-33.38 135.23,-67.51 0.39,-0.2 0.39,-0.64 l 0.13,-126.89 a 0.75,0.74 -10.4 0 0 -1.01,-0.69 q -10,3.76 -19.86,8.9 -62.13,32.37 -124.28,64.86 a 0.91,0.9 -14.3 0 0 -0.49,0.82 q 0.31,57.29 0.45,114.6 z M 787.67,442.73 c -0.2,2.34 2.65,4.03 4.39,4.96 q 33.88,18.21 156.76,83.99 c 2.02,1.08 9.07,4.72 8.95,-0.93 q -0.19,-9.76 -0.03,-16.11 c 0.08,-3.1 -0.67,-6.98 -0.11,-10.59 0.43,-2.76 0.05,-5.01 0.09,-7.3 q 0.78,-41.89 -0.66,-83.75 -0.11,-3.25 -0.44,-5.71 -0.16,-1.21 -1.26,-1.74 -76.73,-37.09 -153.38,-74.07 -5.9,-2.84 -12.68,-5.5 a 1.09,1.08 -78.9 0 0 -1.48,1 q -0.46,56.93 -0.02,114.14 0,0.1 -0.13,1.61 z m 187.49,-36.09 q -0.4,9.33 -0.15,18.05 1.14,41 2.33,81.99 0.35,12.02 0.09,24.7 a 0.75,0.75 0 0 0 1.04,0.71 q 9.54,-4 19.17,-8.62 55.83,-26.8 111.62,-53.68 c 4.16,-2 8.29,-3.58 12.52,-5.16 a 0.67,0.67 0 0 0 0.44,-0.63 q 0.12,-10 -0.07,-19.94 -0.95,-48.97 -2.07,-97.93 c -0.07,-2.98 0.41,-6.96 0.25,-10.47 q -0.02,-0.53 -0.56,-0.58 -2.59,-0.24 -3.78,0.35 -66.32,33.04 -132.6,66.16 -3.73,1.87 -7.17,3.47 a 1.83,1.81 79.2 0 0 -1.06,1.58 z m -183.21,58.74 q -7.9,-4.67 -15.15,-8.49 c -2.25,-1.18 -4.61,-2.67 -4.57,-5.13 0.51,-34.3 0.09,-68.56 0.52,-102.89 q 0.01,-0.6 -0.58,-0.48 -3.53,0.75 -6.18,2.11 -18.51,9.5 -62.52,32.55 -0.44,0.23 -0.94,0.24 -0.81,0 -1.52,0.36 -0.48,0.24 -0.49,0.78 -0.12,11.38 0.14,22.76 1.17,51.8 1.98,103.43 a 0.36,0.36 0 0 0 0.49,0.33 q 10.79,-4.21 21,-9.5 34.02,-17.6 67.74,-34.12 a 1.11,1.11 0 0 0 0.08,-1.95 z m 420.57,41.12 q 0.12,0 0.26,0.01 0.23,0.01 0.22,-0.23 -0.44,-8.51 0.47,-22.03 1.19,-17.94 -0.21,-48 -0.4,-8.62 0.26,-38.25 0.02,-0.73 -0.42,-2.78 -0.11,-0.49 -0.53,-0.77 c -1.65,-1.08 -3.4,-2.3 -5.21,-3.16 q -33.44,-15.78 -67.21,-32.5 a 1.57,1.57 0 0 0 -2.27,1.31 q -0.12,2.03 -0.12,4.65 0.13,50.75 -0.02,101.5 -0.01,1.83 -0.56,3.61 -0.15,0.5 -0.58,0.78 -3.6,2.39 -7.99,2.85 a 0.88,0.88 0 0 0 -0.34,1.64 c 25.6,14.42 51.82,27.76 77.73,41.61 1.98,1.07 3.63,2.51 5.19,4.03 a 0.47,0.47 0 0 0 0.79,-0.32 l 0.5,-13.91 q 0,-0.04 0.04,-0.04 z"
       id="path46"
       style="stroke-width:1.08099" />
    <path
       fill="#6584c2"
       d="m 1085.32,148.93 c 1.72,0.79 4.3,2.49 6.05,2.87 q 1.08,0.23 0.08,0.71 c -2.33,1.13 -4.65,2.81 -6.71,3.86 q -66.74,33.87 -133.31,68.05 -0.52,0.26 -1.03,0 L 790.55,144.55 a 1.27,1.27 0 0 1 -0.05,-2.24 q 0.74,-0.42 2.37,-1.12 c 45.11,-19.44 90.61,-38.28 135.42,-58.38 q 6.82,-3.06 12.72,-0.33 72.11,33.31 144.31,66.45 z M 782.94,256.06 q -6.32,-3.06 -9.82,-5.3 -0.46,-0.3 -0.46,-0.85 l -0.26,-87.72 a 1.84,1.83 10.2 0 1 2.48,-1.72 c 4.06,1.53 8.05,3.03 11.99,4.94 q 69.28,33.65 138.8,66.81 5.22,2.5 10.59,4.88 a 0.61,0.6 -44.1 0 1 -0.02,1.11 q -47.51,19.63 -95.17,39.66 c -7.56,3.18 -9.89,1.22 -17.73,-2.48 q -20.27,-9.58 -40.4,-19.33 z m 310.86,38.83 c -42.22,-18.98 -84.24,-38.38 -126.33,-57.66 a 0.43,0.43 0 0 1 0.02,-0.79 q 11.24,-4.45 22.24,-9.98 66.89,-33.6 112.32,-56.1 2.22,-1.1 5.12,-1.46 0.44,-0.05 0.45,0.39 0.35,52.71 -0.14,118.46 -0.03,4.31 -1.44,7.92 -0.19,0.48 -0.63,0.74 c -3.48,2.02 -8.1,0.06 -11.61,-1.52 z"
       id="path48"
       style="stroke-width:1.08326" />
    <path
       fill="#d97b31"
       d="m 529.11,290.27 a 1.5,1.5 0 0 1 -0.39,-2.42 c 3.82,-3.71 9.32,-5.21 14.21,-7.27 q 63.84,-26.9 127.76,-53.65 c 4.73,-1.98 6.33,-1.72 11.15,0.53 q 56.54,26.32 113.16,52.46 c 6.75,3.11 13.01,5.61 19.71,7.98 a 0.54,0.53 -46.2 0 1 0.02,1 q -20.54,8.24 -40.43,16.87 c -1.15,0.5 -2.03,1.93 -2.03,3.31 q -0.04,8.97 -0.01,18.01 a 1.93,1.92 76.8 0 1 -1.06,1.72 q -36.96,18.8 -73.91,37.73 -6.41,3.28 -12.72,0.13 -77.21,-38.52 -155.46,-76.4 z"
       id="path50"
       style="stroke-width:1.08326" />
    <path
       fill="#952780"
       d="m 1122.29,307.56 a 1.49,1.49 0 0 1 -0.4,-2.29 l 2.92,-3.32 q 0.36,-0.41 0.37,-0.95 0.26,-12.79 0.37,-25.54 c 0.04,-3.95 -0.5,-6.05 3.68,-7.92 q 46.84,-20.98 72.56,-31.28 c 6.15,-2.47 10.49,-0.18 16.13,2.43 q 72.48,33.57 144.97,67.11 0.65,0.3 0.06,0.69 -4.21,2.76 -9.87,5.61 -50.37,25.29 -117.38,60.02 c -3.17,1.64 -6.43,3.05 -9.69,4.52 -3.57,1.61 -7.06,0.34 -10.26,-1.33 q -38.06,-19.89 -76.75,-38.53 -0.45,-0.21 -0.59,-0.7 c -1.51,-5.12 -0.73,-11 -0.7,-16.31 0.02,-3.64 -0.33,-4.66 -3.75,-6.26 q -5.9,-2.75 -11.67,-5.95 z"
       id="path52"
       style="stroke-width:1.08326" />
    <path
       fill="#e0d500"
       d="m 802.04,312.64 a 0.49,0.45 13.5 0 1 -0.22,-0.33 q -0.14,-0.88 0.81,-1.27 72.98,-30.57 145.94,-61.21 2.34,-0.98 5.54,0.51 76.31,35.62 152.21,70.47 a 0.65,0.65 0 0 1 0.01,1.17 q -71.13,34.21 -142.25,68.18 c -3.01,1.44 -3.17,-0.21 -5.41,-1.29 Q 885.53,353.51 812.21,318.52 c -3.7,-1.77 -6.84,-3.75 -10.17,-5.88 z"
       id="path54"
       style="stroke-width:1.08326" />
    <path
       fill="#d97b31"
       d="m 623.07,357.07 c 19.31,9.38 38.85,18.35 58.09,27.83 a 1.43,1.43 0 0 1 0.79,1.26 c 0.17,9.42 0.4,15.75 1.06,28.1 0.4,7.49 0.01,17.1 0,22.35 q -0.05,23.82 0.07,47.64 c 0.01,1.23 0.49,2.41 -0.27,3.84 q -0.23,0.43 -0.23,0.91 c 0,2.05 1.89,22.93 -4.66,20.04 q -5.39,-2.39 -14.65,-7.33 -68,-36.31 -135.88,-72.84 c -4.6,-2.47 -8.5,-4.72 -13.62,-5.87 a 1.02,1.01 5.9 0 1 -0.79,-0.96 c -0.87,-39.02 0.6,-78.05 -0.6,-117.01 a 0.58,0.58 0 0 1 0.79,-0.56 q 8.27,3.12 16.15,6.96 46.85,22.86 93.75,45.64 z"
       id="path56"
       style="stroke-width:1.08326" />
    <path
       fill="#952780"
       d="m 1234.6,509.44 q -0.14,-57.31 -0.45,-114.6 a 0.91,0.9 -14.3 0 1 0.49,-0.82 q 62.15,-32.49 124.28,-64.86 9.86,-5.14 19.86,-8.9 a 0.75,0.74 -10.4 0 1 1.01,0.69 l -0.13,126.89 q 0,0.44 -0.39,0.64 -67.49,34.13 -135.23,67.51 -4.53,2.23 -8.22,3.41 -1.74,0.56 -1.59,-1.26 0.38,-4.55 0.37,-8.7 z"
       id="path58"
       style="stroke-width:1.08326" />
    <path
       fill="#e0d500"
       d="m 792.06,447.69 c -1.74,-0.93 -4.59,-2.62 -4.39,-4.96 q 0.13,-1.51 0.13,-1.61 -0.44,-57.21 0.02,-114.14 a 1.09,1.08 -78.9 0 1 1.48,-1 q 6.78,2.66 12.68,5.5 76.65,36.98 153.38,74.07 1.1,0.53 1.26,1.74 0.33,2.46 0.44,5.71 1.44,41.86 0.66,83.75 c -0.04,2.29 0.34,4.54 -0.09,7.3 -0.56,3.61 0.19,7.49 0.11,10.59 q -0.16,6.35 0.03,16.11 c 0.12,5.65 -6.93,2.01 -8.95,0.93 Q 825.94,465.9 792.06,447.69 Z m 183.1,-41.05 a 1.83,1.81 79.2 0 1 1.06,-1.58 q 3.44,-1.6 7.17,-3.47 66.28,-33.12 132.6,-66.16 1.19,-0.59 3.78,-0.35 0.54,0.05 0.56,0.58 c 0.16,3.51 -0.32,7.49 -0.25,10.47 q 1.12,48.96 2.07,97.93 0.19,9.94 0.07,19.94 a 0.67,0.67 0 0 1 -0.44,0.63 c -4.23,1.58 -8.36,3.16 -12.52,5.16 q -55.79,26.88 -111.62,53.68 -9.63,4.62 -19.17,8.62 a 0.75,0.75 0 0 1 -1.04,-0.71 q 0.26,-12.68 -0.09,-24.7 -1.19,-40.99 -2.33,-81.99 -0.25,-8.72 0.15,-18.05 z"
       id="path60"
       style="stroke-width:1.08326" />
    <path
       fill="#d97b31"
       d="m 791.95,465.38 a 1.11,1.11 0 0 1 -0.08,1.95 q -33.72,16.52 -67.74,34.12 -10.21,5.29 -21,9.5 a 0.36,0.36 0 0 1 -0.49,-0.33 q -0.81,-51.63 -1.98,-103.43 -0.26,-11.38 -0.14,-22.76 0.01,-0.54 0.49,-0.78 0.71,-0.36 1.52,-0.36 0.5,-0.01 0.94,-0.24 44.01,-23.05 62.52,-32.55 2.65,-1.36 6.18,-2.11 0.59,-0.12 0.58,0.48 c -0.43,34.33 -0.01,68.59 -0.52,102.89 -0.04,2.46 2.32,3.95 4.57,5.13 q 7.25,3.82 15.15,8.49 z"
       id="path62"
       style="stroke-width:1.08326" />
    <path
       fill="#952780"
       d="m 1212.48,506.54 -0.5,13.91 a 0.47,0.47 0 0 1 -0.79,0.32 c -1.56,-1.52 -3.21,-2.96 -5.19,-4.03 -25.91,-13.85 -52.13,-27.19 -77.73,-41.61 a 0.88,0.88 0 0 1 0.34,-1.64 q 4.39,-0.46 7.99,-2.85 0.43,-0.28 0.58,-0.78 0.55,-1.78 0.56,-3.61 0.15,-50.75 0.02,-101.5 0,-2.62 0.12,-4.65 a 1.57,1.57 0 0 1 2.27,-1.31 q 33.77,16.72 67.21,32.5 c 1.81,0.86 3.56,2.08 5.21,3.16 q 0.42,0.28 0.53,0.77 0.44,2.05 0.42,2.78 -0.66,29.63 -0.26,38.25 1.4,30.06 0.21,48 -0.91,13.52 -0.47,22.03 0.01,0.24 -0.22,0.23 -0.14,-0.01 -0.26,-0.01 -0.04,0 -0.04,0.04 z"
       id="path64"
       style="stroke-width:1.08326" />
    <path
       d="m 1439.96,501 v -2.9 q 0,-0.48 -0.45,-0.64 -2.24,-0.78 -3.26,1 c -2.07,3.13 -4.12,5.75 -5.22,9.46 -0.49,1.65 -4.5,14.55 -5.41,14.76 q -1.3,0.31 -1.63,-0.38 -3.21,-6.85 -6.21,-13.51 c -0.78,-1.73 -4.2,-13.13 -6.78,-14.3 a 0.63,0.63 0 0 0 -0.88,0.69 l 0.13,0.74 q 0.08,0.4 -0.01,0.8 l -4.57,19.74 q -0.28,1.2 0.73,1.91 l 3.18,2.21 q 0.57,0.4 0.33,1.05 c -0.79,2.14 -5.09,1.19 -7.33,1.75 q -0.49,0.12 -0.97,-0.06 c -3.98,-1.48 0.73,-5.29 2.09,-6.35 q 0.41,-0.32 0.53,-0.82 0.79,-3.49 1.55,-6.97 c 0.92,-4.17 2.83,-8.85 3.67,-13.52 0.64,-3.51 -1.58,-7.2 -3.08,-10.21 a 0.66,0.66 0 0 1 0.59,-0.95 c 2.59,-0.02 7.97,-0.03 9.32,2.77 q 4.09,8.52 7.58,17.31 c 0.85,2.14 1.24,5.18 2.7,7.54 a 0.66,0.65 40 0 0 1.17,-0.1 q 2.47,-6.44 5.99,-12.3 c 2.21,-3.68 2.58,-7.19 3.5,-11.21 q 0.13,-0.53 0.53,-0.89 2.87,-2.63 6.93,-3.33 a 1.69,1.68 -86.8 0 1 1.9,2.13 c -2.24,7.84 1.15,19.72 2.78,27.76 0.58,2.88 1.94,4.98 3.35,7.46 a 0.76,0.75 -23.9 0 1 -0.42,1.08 c -1.86,0.62 -12.9,3.26 -11.34,-1.89 2.11,-6.92 0.26,-12.93 -0.99,-19.83 z m -58.71,-13.71 q 0.27,12.98 0.27,25.95 c -0.01,3.23 0.76,5.98 1.83,8.85 a 1.05,1.05 0 0 1 -0.96,1.42 l -10.44,0.33 q -1.38,0.04 -1.01,-1.28 c 0.94,-3.44 2.1,-6.5 2.06,-10.12 q -0.15,-12.72 0.45,-25.44 0.02,-0.59 -0.55,-0.71 c -6.99,-1.51 -8.97,1.15 -12.47,6.32 a 0.55,0.54 -21.1 0 1 -0.98,-0.43 c 0.96,-3.87 0.33,-8.23 6.04,-7.69 q 2.54,0.24 10.4,0.46 c 5.15,0.14 11.63,-0.85 17.55,-0.45 q 0.53,0.04 0.69,0.54 0.97,2.87 0.46,5.86 -0.1,0.57 -0.68,0.6 c -2.33,0.09 -0.8,-3.85 -4.13,-4.76 q -3.91,-1.07 -8,-0.13 -0.54,0.12 -0.53,0.68 z"
       id="path66"
       style="stroke-width:1.08099" />
    <path
       fill="#6584c2"
       d="m 1439.96,501 q -0.29,-0.86 -0.21,-1.77 0.05,-0.53 -0.34,-0.88 -1.38,-1.23 -3.16,0.11 1.02,-1.78 3.26,-1 0.45,0.16 0.45,0.64 z"
       id="path68"
       style="stroke-width:1.08326" />
    <path
       d="m 1271.53,600.88 c -1.34,0.26 -10.07,1.68 -10.56,-0.63 a 0.74,0.73 -8.3 0 1 0.66,-0.88 q 2.54,-0.19 4.7,-1.23 c 3.57,-1.72 7.2,-9.13 7.4,-12.93 0.52,-9.66 0.44,-16.95 5.22,-26.77 6.16,-12.67 17.72,-14.79 30.35,-18.15 q 1.96,-0.52 7.63,-0.28 c 9.45,0.41 20.03,3.58 28.86,6.6 a 1.11,1.11 0 0 1 0.58,1.63 q -4.21,6.88 -9.46,12.93 c -2.26,2.62 -4.82,6.34 -8.26,8.81 q -0.65,0.46 -0.83,-0.32 c -1.12,-4.77 -0.96,-10.27 -2.65,-14.27 -3.88,-9.16 -11.49,-12.43 -20.77,-8.46 q -0.47,0.2 -0.74,0.62 c -8.04,12.35 -6.04,26.64 -5.88,43.19 0.02,1.8 -0.52,3.68 2.03,3.92 q 5.56,0.54 12.35,-0.01 c 5.78,-0.47 6.84,6.81 1.34,6.6 q -6.72,-0.24 -13.59,-0.46 a 1.68,1.67 -88.3 0 0 -1.73,1.64 q -0.63,27.44 -0.41,55.32 c 0.08,9.87 5.99,13.45 14.91,14.63 q 1.49,0.2 2.57,1.22 1.72,1.63 -0.57,2.24 c -2.58,0.69 -5.08,1.12 -7.87,1.13 q -18.02,0.07 -36.06,0.07 c -3.47,0 -10.58,-0.22 -13.52,-2.19 a 0.75,0.75 0 0 1 0.28,-1.36 q 7.13,-1.33 13.72,-4.36 0.41,-0.19 0.59,-0.61 2.36,-5.61 2.38,-10.83 0.11,-27.25 0.03,-54.6 a 2.26,2.26 0 0 0 -2.7,-2.21 z"
       id="path70"
       style="stroke-width:1.08099" />
    <ellipse
       rx="14"
       ry="13.71"
       transform="rotate(89.5,78.695,638.716)"
       id="ellipse72"
       cx="0"
       cy="0"
       style="stroke-width:1.08099" />
    <path
       d="m 530.86,574.58 q -2.69,0.38 -1.77,4.44 -1.56,14.63 -3.94,29.15 c -1.8,10.96 -3.34,24.5 -5.86,36.64 q -0.22,1.03 -0.81,1.93 -0.27,0.4 -0.25,0.88 c 0.13,4.84 -0.77,10.51 0.65,14.71 q 3.01,8.91 13.24,10.52 1.76,0.27 3.13,1.01 a 0.74,0.73 50.6 0 1 -0.13,1.35 c -10.09,3.03 -23.74,1.55 -34.37,1.71 q -5.4,0.08 -11.07,-1.52 a 0.78,0.78 0 0 1 -0.56,-0.69 c -0.1,-1.77 12.47,-3.64 15.02,-7.85 q 4.79,-7.93 5.6,-13.61 c 3.68,-25.87 9.25,-51.67 11.85,-77.68 0.29,-2.98 3.84,-11.16 1.02,-14.56 q -5.71,-6.89 -15.03,-8.32 a 1.51,1.5 -9.4 0 1 -1.08,-0.77 c -1.14,-2.13 0.39,-3.01 2.3,-2.91 q 20.25,1.08 40.68,0.67 a 3.09,3.09 0 0 1 2.77,1.63 c 0.89,1.68 1.31,4.27 2.05,6.13 q 13,32.9 26.02,65.79 c 1.14,2.89 1.7,6.47 2.97,9.46 a 1.14,1.14 0 0 0 2.1,0 c 9.5,-22.46 18.11,-45.07 27.85,-67.31 2.01,-4.57 3.44,-9.33 5.12,-14.09 q 0.18,-0.51 0.68,-0.71 1.34,-0.53 3.21,-0.57 18.86,-0.46 37.97,-0.2 a 1.45,1.44 78.8 0 1 1.29,0.87 c 1.25,2.9 -6.05,4.35 -7.84,4.96 q -4.38,1.47 -4.93,6.11 c -1.55,13.07 0.53,27.69 2.7,40.69 q 2.71,16.26 4.63,32.65 c 0.91,7.78 2.82,15.57 4.19,23.39 1.61,9.23 7.88,12.02 16.22,14.05 q 2.91,0.71 1.25,2.92 a 1.9,1.89 14.9 0 1 -1.27,0.73 c -8.17,1.1 -17.42,0.58 -23.68,0.68 -12.4,0.2 -23.69,0.6 -34.53,-0.25 -1.53,-0.12 -4.93,-2.47 -1.85,-3.52 8.76,-3 16.07,-7.18 15.33,-17.83 -0.81,-11.73 -4.53,-26.89 -5.84,-40.62 q -1.21,-12.76 -3.94,-25.29 c -1,-4.63 -0.87,-9.76 -1.74,-14.54 a 0.99,0.99 0 0 0 -1.85,-0.27 c -5.89,11.54 -9.73,23.71 -14.72,35.56 q -12.65,30.01 -21.04,51.23 -1.87,4.73 -3.9,12.16 -0.14,0.53 -0.6,0.83 -2.75,1.8 -5.83,0.83 -0.56,-0.17 -0.74,-0.73 -3.14,-9.41 -5.03,-14.13 -15.13,-37.83 -29.9,-75.79 c -1.66,-4.27 -1.69,-6.82 -5.74,-9.92 z m 835.32,20.1 25.57,0.45 a 1.51,1.51 0 0 1 1.33,0.86 c 1.29,2.73 -0.97,3.63 -3.22,3.94 q -11.7,1.62 -22.96,0.72 a 1.52,1.52 0 0 0 -1.64,1.53 q 0.28,22.99 0.28,45.51 c 0,11.25 1.21,19.9 13.25,22.02 4.82,0.85 11.26,-3.84 14.77,-6.81 a 0.38,0.38 0 0 1 0.62,0.23 c 1.21,7.02 -9.21,13.26 -14.67,15.15 -3.28,1.13 -14.31,0.61 -17.97,0.07 -14.27,-2.11 -20.25,-12.66 -19.76,-26.45 0.41,-11.25 0.09,-22.4 0.23,-33.76 q 0.1,-8.03 -0.17,-16.1 a 0.75,0.75 0 0 0 -0.74,-0.72 l -12.53,-0.21 a 1.32,1.31 -66.9 0 1 -0.9,-2.25 q 5.54,-5.52 11.05,-9.72 3.6,-2.75 5.96,-5.45 8.92,-10.21 18.03,-20.78 a 1.59,1.59 0 0 1 2.79,1.04 l 0.01,30.04 q 0,0.68 0.67,0.69 z"
       id="path74"
       style="stroke-width:1.08099" />
    <path
       fill="#6584c2"
       d="m 530.86,574.58 -1.72,5.89 q -0.09,0.32 -0.13,-0.01 -0.08,-0.74 0.08,-1.44 -0.92,-4.06 1.77,-4.44 z"
       id="path76"
       style="stroke-width:1.08326" />
    <path
       d="m 1116.32,661.02 c -0.7,-16.86 -36.18,-17.71 -44.51,-31.07 -5.63,-9.03 -5.65,-22.35 2.61,-29.98 11.4,-10.52 24.23,-10.42 38.46,-6.14 4.05,1.22 7.77,0.02 11.15,-1.93 a 1.14,1.14 0 0 1 1.71,1.01 l -0.34,22.34 a 1.05,1.01 2.9 0 1 -1.13,0.99 c -0.19,-0.01 -1.14,-0.91 -1.26,-1.17 q -6.38,-13.61 -20.12,-18.23 c -6.8,-2.29 -13.57,-1 -17.71,4.85 -7.12,10.08 8.6,16.02 15.44,18.73 17.46,6.94 34.28,15.36 29.27,37.66 -1.96,8.7 -9.82,15.72 -17.62,19.13 -7.23,3.15 -19.37,1.58 -27.02,0.36 q -8.51,-1.36 -15.57,1.21 -1.56,0.56 -1.6,-1.1 l -0.63,-28.15 a 1.61,1.59 -29.1 0 1 0.27,-0.92 q 1.57,-2.3 2.84,0.28 c 6.1,12.37 19.09,30.26 35.66,25.58 5.91,-1.68 10.36,-7.29 10.1,-13.45 z m -346.98,6.4 C 757.6,656.56 753.78,638.33 758.96,623.25 q 6.59,-19.17 25.98,-27.31 c 15,-6.3 30.78,-5.79 46.09,-0.84 0.58,0.19 1.44,0.13 2.08,0.14 q 0.48,0.01 0.9,-0.22 l 6.83,-3.81 a 1.21,1.2 73.8 0 1 1.79,0.99 q 0.65,11.64 1.69,23.54 0.06,0.7 -0.35,2.84 -0.09,0.45 -0.45,0.75 -1.78,1.45 -2.93,-0.67 c -5.42,-9.99 -14.27,-20.36 -25.47,-22.22 -12.13,-2.02 -24.16,5.59 -28.64,16.78 -8.98,22.41 -1.35,58.77 30.12,56.44 9.74,-0.72 18.1,-5.58 25.05,-12.32 0.77,-0.74 1.97,-1.36 2.89,-1.89 q 0.45,-0.26 0.75,0.17 0.51,0.73 -0.05,1.63 c -8.78,14.23 -21.77,21.1 -38.43,21.76 -13.88,0.55 -26.88,-1.8 -37.47,-11.59 z m 210.9,9.92 c -17.09,-4.87 -31.39,-18.18 -33.33,-36.52 -1.87,-17.58 5.54,-32.34 20.44,-41.51 4.14,-2.55 9.61,-4.25 14.64,-6.02 14.65,-5.18 33.24,-1 46.28,6.68 q 2,1.17 7.85,6.64 7.52,7.01 10.16,17.88 c 1.33,5.5 2.92,9.63 1.66,14.94 -2.54,10.67 -4.78,18.94 -13.46,26.57 q -14.39,12.67 -33.76,13.23 c -5.67,0.16 -14.54,-0.2 -20.48,-1.89 z m -4.27,-19.71 c 3.16,10.07 11.91,17.77 22.72,17.47 12.89,-0.36 19.99,-14.56 21.78,-25.6 2.85,-17.63 2.54,-49.67 -21.42,-53.42 -7.85,-1.23 -15.47,3.77 -19.63,10.01 q -2.52,3.78 -4.37,11.9 c -3.17,13.87 -3.6,25.19 0.92,39.64 z m 263.78,2.86 c -26.33,34.63 -98.48,20.91 -92.53,-31.21 1.56,-13.71 11.45,-25.8 23.57,-31.71 q 24.95,-12.15 51.26,-0.83 c 9.54,4.11 19.72,13.41 23.41,23.78 1.35,3.79 4.1,13.22 2.83,18.24 -2.01,7.95 -3.16,14.66 -8.54,21.73 z m -64.51,-6.86 c 3,10.49 7.43,18.99 19.23,21.19 18.02,3.38 26.47,-17.84 26.96,-31.76 0.5,-14.27 0.73,-34.79 -13.01,-43.72 -12.72,-8.27 -28.27,-0.09 -31.86,13.7 -3.81,14.64 -5.43,26.25 -1.32,40.59 z M 892.31,615.47 a 0.35,0.35 0 0 0 0.63,0.06 c 5.42,-9.5 12.16,-20.99 23.72,-23.3 6.39,-1.27 12.06,0.48 15.62,6 1.11,1.71 1.06,3.31 0.37,5.36 q -2.88,8.55 -4.23,17.89 a 0.54,0.54 0 0 1 -0.93,0.3 c -4.92,-5.18 -14.28,-12.67 -21.93,-9.62 -3.25,1.3 -10.11,5.47 -12.51,8.67 q -1.23,1.64 -1.42,5.92 -1.11,24.64 0.23,40.76 c 0.18,2.07 10.29,4.97 12.78,5.93 a 1.16,1.16 0 0 1 -0.03,2.18 q -4.06,1.44 -9.55,1.45 -15.28,0.03 -30.56,0.03 c -2.57,0 -9.16,-0.19 -11.22,-1.71 a 0.97,0.97 0 0 1 0.22,-1.68 c 6.48,-2.58 13.67,-4.7 14.21,-13.13 0.84,-13.15 -0.1,-25.89 0.07,-44.24 0.07,-7.56 -0.87,-12.15 -6.24,-16.93 -2.12,-1.89 -4.19,-1.99 -6.86,-2.9 q -0.48,-0.16 -0.59,-0.65 -0.42,-1.79 0.9,-1.91 17.24,-1.51 35.49,-2.43 0.77,-0.04 0.77,0.73 c 0.01,6.79 -1.11,16.74 1.06,23.22 z M 693.19,596.56 q -1.07,-0.19 -0.58,-1.53 0.17,-0.45 0.65,-0.54 c 10.79,-2.01 23.06,-2.43 34.38,-2.56 a 1.55,1.54 0.2 0 1 1.56,1.56 c -0.23,20.78 0.47,41.92 -0.53,62.8 -0.46,9.48 3.98,14.23 12.79,16.58 q 0.49,0.13 0.76,0.56 0.45,0.71 0.49,1.41 0.11,1.7 -1.59,1.76 -19.71,0.69 -39.43,0.33 c -3.48,-0.06 -6.53,-0.01 -9.74,-1.26 a 1.02,1.02 0 0 1 0.03,-1.91 c 4.44,-1.57 12.02,-3.24 12.78,-8.82 0.44,-3.23 0.77,-6.63 0.69,-10.02 -0.46,-19.37 0.91,-31.75 -0.34,-47.24 -0.41,-5.15 -7.61,-10.33 -11.92,-11.12 z"
       id="path78"
       style="stroke-width:1.08099" />
    <path
       d="m 470.11,697.72 a 0.74,0.74 0 0 1 -0.7,-0.42 q -1.06,-2.27 0.67,-3.9 0.37,-0.35 0.88,-0.33 c 14.38,0.74 30.75,-0.29 42.85,-0.3 242.57,-0.12 485.16,-0.06 727.75,0.04 q 82.44,0.04 164.89,-0.13 c 14.36,-0.03 30.93,0.93 46.5,0.45 q 0.5,-0.01 0.78,0.4 1.35,2.05 -0.31,3.9 -0.32,0.35 -0.79,0.34 c -7.47,-0.06 -15.26,-0.52 -22.35,-0.22 -7.59,0.32 -15.27,0.99 -22.72,0.93 -51.83,-0.46 -103.74,-0.4 -155.57,-0.15 -90.89,0.43 -181.71,0.02 -272.55,-0.04 -138.54,-0.09 -277.1,-0.43 -415.63,0.19 q -19.28,0.08 -54.56,-0.13 c -13.55,-0.08 -26.31,-1.02 -39.14,-0.63 z m 857.8,34.55 a 23.92,23.92 0 0 1 -23.92,23.92 23.92,23.92 0 0 1 -23.92,-23.92 23.92,23.92 0 0 1 23.92,-23.92 23.92,23.92 0 0 1 23.92,23.92 z m -8.044,-8.42 a 17.94,17.65 -28.5 0 0 -24.188,-6.951 17.94,17.65 -28.5 0 0 -7.344,24.071 17.94,17.65 -28.5 0 0 24.188,6.951 17.94,17.65 -28.5 0 0 7.344,-24.071 z"
       id="path82"
       style="stroke-width:1.08099" />
    <ellipse
       rx="6.8899999"
       ry="6.27"
       transform="rotate(68.7,115.353,1320.275)"
       id="ellipse88"
       cx="0"
       cy="0"
       style="stroke-width:1.08099" />
  </g>
</svg>
